<svg xmlns="http://www.w3.org/2000/svg" viewBox="0 0 1200 800" role="img" aria-labelledby="title desc">
  <title id="title">Памятник Пушкину в Кеми</title>
  <desc id="desc">Стилизованная иллюстрация серебристого памятника, раскрытой книги и пера в цветах проекта</desc>
  <defs>
    <linearGradient id="sky" x1="0" y1="0" x2="1" y2="1">
      <stop stop-color="#e8f6fb"/>
      <stop offset="1" stop-color="#ffffff"/>
    </linearGradient>
    <linearGradient id="metal" x1="0" y1="0" x2="1" y2="1">
      <stop stop-color="#f4f7f8"/>
      <stop offset=".48" stop-color="#a7b3ba"/>
      <stop offset="1" stop-color="#65747e"/>
    </linearGradient>
  </defs>
  <rect width="1200" height="800" fill="url(#sky)"/>
  <circle cx="955" cy="145" r="105" fill="#f4b740"/>
  <path d="M0 592c172-68 314-55 454 11 166 79 347 76 746-42v239H0Z" fill="#1769aa"/>
  <path d="M0 650c219-42 385-20 532 42 155 66 355 46 668-65v173H0Z" fill="#75c5df" opacity=".9"/>
  <g fill="#102a43" opacity=".22">
    <path d="M58 575 172 405l114 170Z"/>
    <path d="M165 575 301 350l136 225Z"/>
    <path d="M818 570 935 382l117 188Z"/>
  </g>
  <g transform="translate(495 115)">
    <path d="M110 58c-46 17-64 61-51 105 8 26 27 48 51 61l-17 50h155l-22-53c24-17 39-45 39-75 0-55-45-100-100-100-20 0-38 5-55 12Z" fill="url(#metal)" stroke="#102a43" stroke-width="10"/>
    <path d="M104 99c30-35 84-42 128-15-33-8-63 3-84 31-15 19-22 44-18 72-33-22-44-59-26-88Z" fill="#102a43"/>
    <path d="M95 264h159l36 244H45Z" fill="url(#metal)" stroke="#102a43" stroke-width="10"/>
    <path d="M53 508h230l24 54H26Z" fill="#102a43"/>
    <path d="M27 561h279v52H27Z" fill="#e21f26"/>
    <path d="M66 345c61-38 135-38 196 0v96c-61-37-135-37-196 0Z" fill="#fff" stroke="#102a43" stroke-width="8"/>
    <path d="M164 337v103" stroke="#102a43" stroke-width="7"/>
    <path d="M86 368c23-10 44-14 64-13M86 393c24-8 45-11 64-10M178 355c20-1 42 3 65 13M178 383c20-1 42 3 65 11" stroke="#1769aa" stroke-width="6" stroke-linecap="round"/>
  </g>
  <path d="M865 182c-38 56-73 128-104 216l25 10c39-83 78-151 119-202 28-35 54-59 78-73-38 2-78 18-118 49Z" fill="#e21f26"/>
  <path d="m752 429 28-44 31 13-19 50Z" fill="#102a43"/>
  <text x="72" y="104" fill="#102a43" font-family="Arial, sans-serif" font-size="30" font-weight="700" letter-spacing="4">КЕМЬ · ЛИТЕРАТУРНАЯ ТОЧКА</text>
  <text x="72" y="150" fill="#e21f26" font-family="Arial, sans-serif" font-size="52" font-weight="800">Памятник Пушкину</text>
</svg>
